<svg width="80" height="82" viewBox="0 0 80 82" fill="none" xmlns="http://www.w3.org/2000/svg">
<path fill-rule="evenodd" clip-rule="evenodd" d="M33.0002 6.81751V0H46.9998V6.81751C51.134 7.73399 54.9893 9.3922 58.4188 11.6453L63.1003 6.99992L72.9998 16.8994L68.3606 21.5904C70.7912 25.2926 72.5287 29.4907 73.3884 34H80V48H73.3884C72.5287 52.5093 70.7912 56.7074 68.3606 60.4096L72.9998 65.1006L63.1003 75.0001L58.4188 70.3547C54.9893 72.6078 51.134 74.266 46.9998 75.1825V82H33.0002V75.1825C28.866 74.266 25.0107 72.6078 21.5812 70.3547L16.8997 75.0001L7.00021 65.1006L11.6394 60.4096C9.20877 56.7074 7.47132 52.5093 6.6116 48H0V34H6.6116C7.47132 29.4907 9.20877 25.2926 11.6394 21.5904L7.00021 16.8994L16.8997 6.99992L21.5812 11.6453C25.0107 9.3922 28.866 7.73399 33.0002 6.81751ZM40 62C51.598 62 61 52.598 61 41C61 29.402 51.598 20 40 20C28.402 20 19 29.402 19 41C19 52.598 28.402 62 40 62Z" fill="#6E5C3E"/>
<path fill-rule="evenodd" clip-rule="evenodd" d="M61 41C61 52.598 51.598 62 40 62C28.402 62 19 52.598 19 41C19 29.402 28.402 20 40 20C51.598 20 61 29.402 61 41ZM40 52C46.0751 52 51 47.0751 51 41C51 34.9249 46.0751 30 40 30C33.9249 30 29 34.9249 29 41C29 47.0751 33.9249 52 40 52Z" fill="#F7A607"/>
<path fill-rule="evenodd" clip-rule="evenodd" d="M40 54.317C47.2487 54.317 53.125 48.3548 53.125 40.9999C53.125 33.6451 47.2487 27.6829 40 27.6829C32.7513 27.6829 26.875 33.6451 26.875 40.9999C26.875 48.3548 32.7513 54.317 40 54.317ZM51 41C51 47.0751 46.0751 52 40 52C33.9249 52 29 47.0751 29 41C29 34.9249 33.9249 30 40 30C46.0751 30 51 34.9249 51 41Z" fill="black"/>
<circle cx="40" cy="41" r="20" stroke="#F7A607" stroke-width="10"/>
</svg>
