<svg width="50" height="80" viewBox="0 0 50 80" fill="none" xmlns="http://www.w3.org/2000/svg">
<path d="M25 0C11.1929 0 0 11.2055 0 25.0283C0 31.8496 2.7258 38.0336 7.14642 42.548C11.7857 47.1961 11.7956 48.7017 12.8571 52.9169H25V0Z" fill="#FFC63A"/>
<path d="M50 25.0283C50 11.2055 38.8071 0 25 0V52.9169H37.1429C38.2044 48.7017 38.2143 47.1961 42.8536 42.548C47.2742 38.0336 50 31.8496 50 25.0283Z" fill="#F7A607"/>
<path d="M12.8571 52.9169C9.28571 52.9169 9.28571 57.9225 12.8571 57.9225H37.1429C40.7143 57.9225 40.7143 52.9169 37.1429 52.9169H25H12.8571Z" fill="#6E5C3E"/>
<path d="M12.8571 57.9225C9.28571 57.9225 9.28571 62.9282 12.8571 62.9282H37.1429C40.7143 62.9282 40.7143 57.9225 37.1429 57.9225H12.8571Z" fill="black"/>
<path d="M12.8571 62.9282C9.28571 62.9282 9.28571 67.9338 12.8571 67.9338H37.1429C40.7143 67.9338 40.7143 62.9282 37.1429 62.9282H12.8571Z" fill="#6E5C3E"/>
<path d="M12.8571 67.9338C9.28571 67.9338 9.28571 72.9395 12.8571 72.9395H15.7143H34.2857H37.1429C40.7143 72.9395 40.7143 67.9338 37.1429 67.9338H12.8571Z" fill="black"/>
<path d="M15.7143 72.9395L21.4286 78.6602C22.2966 79.5292 23.249 79.9758 24.2857 80H25.7143C26.7511 79.9758 27.7034 79.5292 28.5714 78.6602L34.2857 72.9395H15.7143Z" fill="#6E5C3E"/>
</svg>
